# Blender 4.4.3
# www.blender.org
mtllib rifle.mtl
o Cylinder
v 0.105506 2.118577 4.099999
v 0.295925 2.038728 4.099999
v 0.441292 1.892086 4.099999
v 0.519477 1.700977 4.099999
v 0.518576 1.494496 4.099999
v 0.438727 1.304075 4.099999
v 0.292085 1.158709 4.099999
v 0.100976 1.080523 4.099999
v -0.105505 1.081424 4.099999
v -0.295925 1.161275 4.099999
v -0.441292 1.307916 4.099999
v -0.519477 1.499025 4.099999
v -0.518576 1.705507 4.099999
v -0.438727 1.895926 4.099999
v -0.292085 2.041294 4.099999
v -0.100976 2.119478 4.099999
v 0.105506 2.118576 -2.216407
v 0.295925 2.038727 -2.216407
v 0.441292 1.892085 -2.216407
v 0.519477 1.700976 -2.216407
v 0.518576 1.494495 -2.216407
v 0.438727 1.304075 -2.216407
v 0.292085 1.158708 -2.216407
v 0.100976 1.080523 -2.216407
v -0.105505 1.081424 -2.216407
v -0.295925 1.161274 -2.216407
v -0.441292 1.307915 -2.216407
v -0.519477 1.499024 -2.216407
v -0.518576 1.705506 -2.216407
v -0.438727 1.895925 -2.216407
v -0.292085 2.041293 -2.216407
v -0.100976 2.119477 -2.216407
v 0.010735 1.903573 -4.006255
v 0.143469 2.124541 -3.813618
v 0.313555 1.940598 -3.793678
v 0.087448 1.814556 -3.996614
v 0.423462 1.629328 -3.748943
v 0.171183 1.553711 -3.958464
v 0.487563 1.134637 -3.596485
v 0.234337 1.031793 -3.807110
v 0.518576 0.524081 -3.320922
v 0.278867 0.391481 -3.509964
v 0.438727 0.131539 -3.150153
v 0.208635 -0.002821 -3.342524
v 0.292085 -0.128590 -3.022911
v 0.094735 -0.224498 -3.229637
v 0.100976 -0.272409 -2.957210
v 0.009855 -0.292677 -3.194922
v -0.105505 -0.270710 -2.957945
v -0.010731 -0.292499 -3.195010
v -0.295925 -0.123952 -3.025114
v -0.097334 -0.221202 -3.231318
v -0.441292 0.138377 -3.153563
v -0.210828 0.003578 -3.345778
v -0.519477 0.532647 -3.325017
v -0.279679 0.400314 -3.514035
v -0.548786 1.197053 -3.584570
v -0.323111 1.073372 -3.801291
v -0.447818 1.746157 -3.707512
v -0.243722 1.612769 -3.939319
v -0.268614 2.018687 -3.766017
v -0.102487 1.842004 -3.987918
v -0.060962 2.151968 -3.803923
v -0.009645 1.906321 -4.005288
v -0.617047 -0.000000 3.285730
v -0.617047 -0.000001 -0.766184
v 0.617047 -0.000000 3.285730
v 0.617047 -0.000001 -0.766184
v -0.617047 -0.000001 1.907557
v -0.333333 -0.408358 -0.766184
v 0.617047 -0.000001 1.907557
v -0.333333 -0.608358 0.410513
v -0.617047 -0.417663 2.207557
v -0.617047 -0.417663 3.285730
v 0.617047 -0.417663 3.285730
v 0.617047 -0.417663 2.207557
v 0.333333 -0.000001 -0.766184
v -0.333333 -0.000001 -0.766184
v -0.333333 2.502709 -0.766184
v 0.333333 2.502709 -0.766184
v -0.333333 -0.000000 3.285730
v 0.333333 -0.000000 3.285730
v 0.333333 2.502709 3.285730
v -0.333333 2.502709 3.285730
v -0.333333 2.502709 1.907557
v 0.333333 2.502709 1.907557
v 0.333333 -0.000001 1.907557
v -0.333333 -0.000001 1.907557
v -0.333333 -0.417663 3.033861
v -0.204558 -0.417663 3.124004
v -0.333333 -0.417660 3.285730
v 0.204558 -0.417663 3.124004
v 0.333333 -0.417663 3.033861
v 0.333333 -0.417660 3.285730
v 0.333333 -0.417663 2.459425
v 0.204558 -0.417663 2.369283
v 0.333333 -0.417661 2.207557
v -0.204558 -0.417663 2.369283
v -0.333333 -0.417663 2.459425
v -0.333333 -0.417661 2.207557
v -0.197896 -3.155999 2.824955
v -0.328230 -3.144426 2.737847
v 0.338314 -3.148146 2.725607
v 0.211145 -3.158282 2.817444
v 0.197896 -3.067402 2.068332
v 0.328230 -3.078975 2.155440
v -0.338314 -3.075255 2.167680
v -0.211145 -3.065119 2.075843
v 0.333333 -0.408358 -0.766184
v 0.617047 -0.000001 0.410513
v -0.617047 -0.000001 0.410513
v 0.333333 -0.608358 0.410513
v -0.333333 -0.000001 0.410513
v 0.333333 -0.000001 0.410513
v 0.333333 2.502709 0.410513
v -0.333333 2.502709 0.410513
v -0.314828 -1.808173 -0.087763
v 0.351496 -1.809481 -0.109075
v 0.314828 -1.608542 -1.267908
v -0.351496 -1.607234 -1.246596
v -0.477313 2.502709 3.285730
v -0.617047 2.362976 3.285730
v -0.617047 2.362975 -0.766184
v -0.477313 2.502709 -0.766184
v 0.617047 2.362976 3.285730
v 0.477313 2.502709 3.285730
v 0.477313 2.502709 -0.766184
v 0.617047 2.362975 -0.766184
v -0.477313 2.502709 1.907557
v -0.617047 2.362976 1.907557
v 0.617047 2.362976 1.907557
v 0.477313 2.502709 1.907557
v -0.617047 2.362976 0.410513
v -0.477313 2.502709 0.410513
v 0.617047 2.362976 0.410513
v 0.477313 2.502709 0.410513
v -0.333333 0.374383 -2.021002
v -0.617047 0.374383 -2.021002
v 0.617047 0.374383 -2.021002
v 0.333333 0.374383 -2.021002
v -0.333333 2.502709 -2.021002
v 0.333333 2.502709 -2.021002
v -0.477313 2.502709 -2.021002
v -0.617047 2.362975 -2.021002
v 0.617047 2.362975 -2.021002
v 0.477313 2.502709 -2.021002
vn -0.5444 0.3673 -0.7542
vn -0.3625 0.5476 -0.7542
vn -0.5993 0.8004 -0.0115
vn -0.8648 0.5018 -0.0199
vn 0.3624 -0.5476 -0.7542
vn 0.1254 -0.6446 -0.7542
vn 0.2394 -0.8255 0.5111
vn 0.6497 -0.6679 0.3630
vn -0.1253 0.6446 -0.7542
vn -0.2018 0.9794 0.0017
vn -0.1309 -0.6435 -0.7542
vn -0.2499 -0.8236 0.5092
vn 0.1309 0.6435 -0.7542
vn 0.3672 0.5444 -0.7542
vn 0.6576 0.7532 -0.0174
vn 0.2696 0.9630 0.0003
vn -0.3671 -0.5445 -0.7542
vn -0.6570 -0.6630 0.3588
vn 0.5476 0.3624 -0.7542
vn 0.8898 0.4552 -0.0317
vn -0.5475 -0.3626 -0.7542
vn -0.8989 -0.4073 0.1616
vn 0.6446 0.1253 -0.7542
vn 0.9869 0.1589 -0.0275
vn -0.6446 -0.1255 -0.7542
vn -0.9905 -0.1319 0.0399
vn 0.6435 -0.1310 -0.7542
vn 0.9928 -0.1182 0.0201
vn -0.6435 0.1309 -0.7542
vn -0.9861 0.1660 -0.0070
vn 0.5445 -0.3671 -0.7542
vn 0.8955 -0.4133 0.1653
vn 0.1756 0.1906 -0.9658
vn 0.3336 -0.0259 -0.9424
vn 0.3527 -0.1905 -0.9161
vn 0.3542 -0.2993 -0.8860
vn 0.3888 -0.3740 -0.8420
vn 0.4033 -0.4848 -0.7761
vn 0.3855 -0.6505 -0.6544
vn 0.1681 -0.8548 -0.4909
vn -0.2018 -0.8475 -0.4909
vn -0.4102 -0.6390 -0.6507
vn -0.4256 -0.4769 -0.7691
vn -0.4071 -0.3787 -0.8312
vn -0.4258 -0.2850 -0.8588
vn -0.4378 -0.1081 -0.8925
vn -0.3628 0.0658 -0.9296
vn -0.1528 0.2371 -0.9594
vn 0.3608 0.8303 -0.4247
vn 0.7394 0.5065 -0.4435
vn 0.8709 0.1717 -0.4605
vn 0.9041 -0.0578 -0.4235
vn 0.9301 -0.2360 -0.2814
vn 0.8904 -0.4519 -0.0549
vn 0.7121 -0.6598 0.2400
vn 0.3017 -0.8309 0.4675
vn -0.3141 -0.8282 0.4642
vn -0.7180 -0.6555 0.2339
vn -0.8922 -0.4476 -0.0605
vn -0.9301 -0.2552 -0.2642
vn -0.9293 -0.0363 -0.3676
vn -0.8676 0.3070 -0.3913
vn -0.6564 0.6420 -0.3962
vn -0.2265 0.8866 -0.4033
vn -0.0000 1.0000 -0.0000
vn -0.3827 0.9239 -0.0000
vn 0.4217 -0.8294 0.3665
vn -0.3702 -0.6185 0.6931
vn -0.0941 0.0161 0.9954
vn 0.1171 0.0191 0.9929
vn 0.3827 0.9239 -0.0000
vn 0.3204 -0.5007 -0.8042
vn 0.7772 -0.3154 0.5446
vn 0.5054 0.7875 0.3528
vn 0.5084 0.8451 -0.1654
vn -0.7184 -0.6633 -0.2096
vn 0.3416 -0.0768 -0.9367
vn 0.1884 0.8470 -0.4971
vn -0.1870 0.8469 -0.4978
vn -0.2838 -0.5059 0.8146
vn -0.9101 -0.2790 -0.3065
vn -0.5101 0.8448 -0.1617
vn -0.4971 0.7857 0.3682
vn -0.7071 0.7071 -0.0000
vn 0.7071 0.7071 -0.0000
vn -1.0000 -0.0000 -0.0000
vn 1.0000 -0.0000 -0.0000
vn -0.0000 -0.0000 1.0000
vn 0.0752 -0.0000 0.9972
vn -0.0000 -0.9011 -0.4336
vn -0.0000 -1.0000 -0.0000
vn -0.0000 -0.0000 -1.0000
vn -0.0120 -0.2266 -0.9739
vn -0.0061 0.5813 -0.8137
vn -0.0000 0.0752 0.9972
vn -0.0000 -0.5834 -0.8122
vn 0.3624 -0.8360 0.4121
vn -0.4331 -0.7083 -0.5575
vn 0.2500 -0.8660 0.4331
vn -0.2245 -0.9710 0.0817
vn -0.0000 -0.9011 0.4336
vn -0.9011 -0.0000 -0.4336
vn -0.6293 0.0805 0.7730
vn -0.1530 0.0334 0.9877
vn 0.2245 -0.0817 0.9710
vn -0.3311 -0.5735 0.7493
vn -0.0000 -0.9583 -0.2859
vn -0.0000 -0.5975 -0.8018
vn 0.4331 -0.2500 0.8660
vn 0.2242 -0.1294 0.9659
vn -0.0000 -0.9869 -0.1616
vn -0.6290 -0.3720 0.6826
vn 0.3311 -0.7493 0.5735
vn -0.1294 -0.9659 -0.2242
vn -0.2500 -0.8660 -0.4331
vn -0.5949 -0.2023 -0.7779
vn 0.6588 0.2917 -0.6935
vn 0.4386 -0.8830 -0.1670
vn 0.0073 -0.9582 0.2861
vn -0.8204 -0.5672 -0.0724
vn -0.0297 -0.4294 -0.9026
vn 0.0033 -0.2400 0.9708
vn 0.0138 -0.9989 -0.0458
vn 0.8283 -0.2293 0.5112
vn -0.0030 0.5209 0.8536
vn 0.7073 -0.7070 -0.0000
vn -0.8961 -0.4147 -0.1585
vn 0.9011 -0.0000 0.4336
vn -0.3374 -0.3331 0.8805
vn 0.6351 -0.7077 -0.3096
vn 0.8931 0.4499 -0.0067
vn 0.5882 -0.3967 0.7048
vn 0.6952 -0.1413 0.7048
vn 0.6964 0.1354 0.7048
vn 0.5916 0.3916 0.7048
vn 0.3966 0.5882 0.7048
vn 0.1414 0.6952 0.7048
vn -0.1353 0.6964 0.7048
vn -0.3915 0.5916 0.7048
vn -0.5882 0.3966 0.7048
vn -0.6952 0.1415 0.7048
vn -0.6964 -0.1353 0.7048
vn -0.5916 -0.3915 0.7048
vn -0.3967 -0.5881 0.7048
vn -0.1413 -0.6952 0.7048
vn 0.1355 -0.6964 0.7048
vn 0.3916 -0.5916 0.7048
vn -0.1083 -0.9491 -0.2959
vn 0.6257 -0.6543 -0.4247
vn 0.6374 -0.7342 0.2337
vn 0.2227 -0.7744 0.5922
vn -0.2091 -0.7720 0.6002
vn -0.6364 -0.7271 0.2574
vn -0.6482 -0.6473 -0.4012
vn 0.0868 -0.9502 -0.2994
vn 0.5571 0.1439 -0.8179
vn 0.8971 0.4130 0.1573
vn -0.8863 -0.0823 0.4558
vn -0.5847 0.7457 0.3195
vn -0.4613 0.3421 -0.8186
vn -0.0067 0.7494 -0.6621
vt 0.187500 0.500000
vt 0.125000 0.500000
vt 0.625000 0.500000
vt 0.562500 0.500000
vt 0.062500 0.500000
vt 0.500000 0.500000
vt 1.000000 0.500000
vt 0.937500 0.500000
vt 0.000000 0.500000
vt 0.437500 0.500000
vt 0.875000 0.500000
vt 0.375000 0.500000
vt 0.812500 0.500000
vt 0.312500 0.500000
vt 0.750000 0.500000
vt 0.250000 0.500000
vt 0.687500 0.500000
vt 0.717683 0.433252
vt 0.759454 0.424943
vt 0.820244 0.384325
vt 0.866059 0.315758
vt 0.882533 0.232935
vt 0.866465 0.152154
vt 0.826055 0.091677
vt 0.791473 0.068570
vt 0.782317 0.066748
vt 0.740546 0.075057
vt 0.679756 0.115675
vt 0.633941 0.184242
vt 0.617467 0.267065
vt 0.633535 0.347846
vt 0.673945 0.408323
vt 0.708527 0.431430
vt 0.949281 0.500000
vt 0.977706 0.500000
vt 0.880083 0.500000
vt 0.928879 0.500000
vt 0.815756 0.500000
vt 0.870795 0.500000
vt 0.753074 0.500000
vt 0.809435 0.500000
vt 0.691754 0.500000
vt 0.746726 0.500000
vt 0.633798 0.500000
vt 0.682343 0.500000
vt 0.585196 0.500000
vt 0.612956 0.500000
vt 0.527990 0.500000
vt 0.534221 0.500000
vt 0.449281 0.500000
vt 0.477706 0.500000
vt 0.380083 0.500000
vt 0.428879 0.500000
vt 0.315756 0.500000
vt 0.370795 0.500000
vt 0.253074 0.500000
vt 0.309435 0.500000
vt 0.191754 0.500000
vt 0.246726 0.500000
vt 0.133797 0.500000
vt 0.182343 0.500000
vt 0.085196 0.500000
vt 0.112956 0.500000
vt 0.027990 0.500000
vt 0.034221 0.500000
vt 0.791667 0.683478
vt 0.833957 0.683478
vt 0.833957 0.750000
vt 0.791667 0.750000
vt 0.375000 0.849430
vt 0.375000 0.900570
vt 0.791667 0.500000
vt 0.833957 0.500000
vt 0.833957 0.628131
vt 0.791667 0.628131
vt 0.666043 0.628131
vt 0.708333 0.628131
vt 0.708333 0.683478
vt 0.666043 0.683478
vt 0.291667 0.691423
vt 0.291667 0.742055
vt 0.224430 0.683478
vt 0.275570 0.683478
vt 0.708333 0.750000
vt 0.208333 0.742055
vt 0.208333 0.691423
vt 0.666043 0.500000
vt 0.708333 0.500000
vt 0.666043 0.750000
vt 0.208333 0.750000
vt 0.375000 0.833333
vt 0.607533 0.250000
vt 0.625000 0.250000
vt 0.625000 0.121869
vt 0.607533 0.121869
vt 0.607533 0.750000
vt 0.607533 0.683478
vt 0.625000 0.000000
vt 0.625000 0.066522
vt 0.607533 0.066522
vt 0.607533 0.000000
vt 0.607533 0.628131
vt 0.607533 0.500000
vt 0.375000 0.250000
vt 0.375000 0.628131
vt 0.375000 0.750000
vt 0.625000 0.791043
vt 0.625000 0.833333
vt 0.291667 0.628131
vt 0.375000 0.683478
vt 0.291667 0.683478
vt 0.375000 0.333333
vt 0.375000 0.416667
vt 0.375000 0.916667
vt 0.625000 0.916667
vt 0.625000 0.958957
vt 0.607533 1.000000
vt 0.375000 1.000000
vt 0.375000 0.000000
vt 0.375000 0.066522
vt 0.125000 0.683478
vt 0.208333 0.683478
vt 0.000000 0.000000
vt 0.125000 0.628131
vt 0.208333 0.628131
vt 0.291667 0.500000
vt 0.208333 0.500000
vt 0.375000 0.121869
vt 0.625000 0.291043
vt 0.625000 0.333333
vt 0.625000 0.416667
vt 0.625000 0.458957
s 1
usemtl Metal
f 14/1/1 15/2/2 31/2/3 30/1/4
f 7/3/5 8/4/6 24/4/7 23/3/8
f 15/2/2 16/5/9 32/5/10 31/2/3
f 8/4/6 9/6/11 25/6/12 24/4/7
f 1/7/13 2/8/14 18/8/15 17/7/16
f 16/5/9 1/9/13 17/9/16 32/5/10
f 9/6/11 10/10/17 26/10/18 25/6/12
f 2/8/14 3/11/19 19/11/20 18/8/15
f 10/10/17 11/12/21 27/12/22 26/10/18
f 3/11/19 4/13/23 20/13/24 19/11/20
f 11/12/21 12/14/25 28/14/26 27/12/22
f 4/13/23 5/15/27 21/15/28 20/13/24
f 12/14/25 13/16/29 29/16/30 28/14/26
f 5/15/27 6/17/31 22/17/32 21/15/28
f 13/16/29 14/1/1 30/1/4 29/16/30
f 6/17/31 7/3/5 23/3/8 22/17/32
f 33/18/33 36/19/34 38/20/35 40/21/36 42/22/37 44/23/38 46/24/39 48/25/40 50/26/41 52/27/42 54/28/43 56/29/44 58/30/45 60/31/46 62/32/47 64/33/48
f 34/7/49 35/8/50 36/34/34 33/35/33
f 35/8/50 37/11/51 38/36/35 36/37/34
f 37/11/51 39/13/52 40/38/36 38/39/35
f 39/13/52 41/15/53 42/40/37 40/41/36
f 41/15/53 43/17/54 44/42/38 42/43/37
f 43/17/54 45/3/55 46/44/39 44/45/38
f 45/3/55 47/4/56 48/46/40 46/47/39
f 47/4/56 49/6/57 50/48/41 48/49/40
f 49/6/57 51/10/58 52/50/42 50/51/41
f 51/10/58 53/12/59 54/52/43 52/53/42
f 53/12/59 55/14/60 56/54/44 54/55/43
f 55/14/60 57/16/61 58/56/45 56/57/44
f 57/16/61 59/1/62 60/58/46 58/59/45
f 59/1/62 61/2/63 62/60/47 60/61/46
f 61/2/63 63/5/64 64/62/48 62/63/47
f 63/5/64 34/9/49 33/64/33 64/65/48
f 85/66/65 129/67/66 121/68/66 84/69/65
f 92/70/67 90/71/68 101/71/69 104/70/70
f 79/72/65 124/73/66 134/74/66 116/75/65
f 136/76/71 115/77/65 86/78/65 132/79/71
f 95/80/72 93/81/73 103/81/74 106/80/75
f 98/82/76 96/83/77 105/83/78 108/82/79
f 115/77/65 116/75/65 85/66/65 86/78/65
f 86/78/65 85/66/65 84/69/65 83/84/65
f 89/85/80 99/86/81 107/86/82 102/85/83
f 127/87/71 80/88/65 115/77/65 136/76/71
f 132/79/71 86/78/65 83/84/65 126/89/71
f 95/80/72 106/80/75 105/83/78 96/83/77
f 107/86/82 99/86/81 98/82/76 108/82/79
f 89/85/80 102/85/83 101/90/69 90/90/68
f 103/91/74 93/91/73 92/70/67 104/70/70
f 80/88/65 79/72/65 116/75/65 115/77/65
f 123/92/84 124/93/66 143/93/66 144/92/84
f 116/75/65 134/74/66 129/67/66 85/66/65
f 134/94/66 124/93/66 123/92/84 133/95/84
f 132/79/71 126/89/71 125/96/85 131/97/85
f 121/98/66 129/99/66 130/100/84 122/101/84
f 136/76/71 132/79/71 131/97/85 135/102/85
f 129/99/66 134/94/66 133/95/84 130/100/84
f 127/87/71 136/76/71 135/102/85 128/103/85
f 127/87/71 128/103/85 145/103/85 146/87/71
f 124/73/66 79/72/65 141/72/65 143/73/66
f 79/72/65 80/88/65 142/88/65 141/72/65
f 80/88/65 127/87/71 146/87/71 142/88/65
f 14/1/132 13/16/133 12/14/134 11/12/135 10/10/136 9/6/137 8/4/138 7/3/139 6/17/140 5/15/141 4/13/142 3/11/143 2/8/144 1/7/145 16/5/146 15/2/147
f 101/90/148 102/85/149 107/86/150 108/82/151 105/83/152 106/80/153 103/81/154 104/70/155
usemtl Body
f 21/15/28 22/17/32 43/17/54 41/15/53
f 32/5/10 17/9/16 34/9/49 63/5/64
f 29/16/30 30/1/4 59/1/62 57/16/61
f 22/17/32 23/3/8 45/3/55 43/17/54
f 30/1/4 31/2/3 61/2/63 59/1/62
f 23/3/8 24/4/7 47/4/56 45/3/55
f 31/2/3 32/5/10 63/5/64 61/2/63
f 24/4/7 25/6/12 49/6/57 47/4/56
f 25/6/12 26/10/18 51/10/58 49/6/57
f 18/8/15 19/11/20 37/11/51 35/8/50
f 26/10/18 27/12/22 53/12/59 51/10/58
f 19/11/20 20/13/24 39/13/52 37/11/51
f 27/12/22 28/14/26 55/14/60 53/12/59
f 20/13/24 21/15/28 41/15/53 39/13/52
f 28/14/26 29/16/30 57/16/61 55/14/60
f 17/7/16 18/8/15 35/8/50 34/7/49
f 66/104/86 123/92/86 144/92/86 138/104/86
f 68/12/87 128/103/87 135/102/87 110/105/87
f 67/106/88 125/96/88 126/107/88 83/108/88 82/91/89
f 114/109/90 110/105/91 71/110/91 87/111/91
f 78/112/92 77/113/92 109/113/93 70/112/94
f 81/114/95 84/115/88 121/116/88 122/117/88 65/118/88
f 65/119/86 69/120/86 73/120/86 74/119/86
f 71/110/87 67/106/87 75/106/87 76/110/87
f 69/121/96 88/122/96 100/122/97 73/121/98
f 92/70/67 93/91/73 75/106/99 94/123/100
f 111/124/91 113/125/101 88/122/91 69/121/91
f 88/122/86 113/125/102 72/125/103 100/122/104
f 110/105/87 135/102/87 131/97/87 71/110/87
f 71/110/87 131/97/87 125/96/87 67/106/87
f 94/123/105 82/91/89 81/114/95 91/114/106
f 82/91/89 83/108/88 84/115/88 81/114/95
f 68/12/107 77/126/107 140/126/108 139/12/108
f 67/106/88 82/91/89 94/91/105 75/106/109
f 81/114/95 65/118/88 74/118/110 91/114/106
f 87/111/96 71/110/96 76/110/111 97/111/112
f 90/90/68 92/70/67 94/123/100 91/114/113
f 89/85/80 90/90/68 91/114/113 74/119/114
f 89/85/80 74/119/114 73/120/115 99/86/81
f 98/82/76 99/86/81 73/121/115 100/122/116
f 96/83/77 98/82/76 100/122/116 97/111/117
f 66/2/91 78/127/91 113/125/101 111/124/91
f 69/120/86 130/100/86 133/95/86 111/128/86
f 77/126/91 68/12/91 110/105/91 114/109/90
f 111/128/86 133/95/86 123/92/86 66/104/86
f 120/127/118 119/126/119 118/109/120 117/125/121
f 112/109/122 72/125/123 117/125/124 118/109/125
f 95/80/72 96/83/77 97/111/117 76/110/126
f 72/125/123 112/109/122 97/111/117 100/122/116
f 65/119/86 122/101/86 130/100/86 69/120/86
f 113/125/102 78/127/86 70/127/127 72/125/103
f 114/109/128 87/111/87 97/111/129 112/109/130
f 77/126/87 114/109/128 112/109/130 109/126/131
f 138/104/108 144/92/92 143/129/92 141/130/92 137/112/108
f 137/112/108 141/130/92 142/131/92 140/113/108
f 140/113/108 142/131/92 146/132/92 145/103/92 139/12/108
f 128/103/87 68/12/87 139/12/87 145/103/87
f 77/113/107 78/112/107 137/112/108 140/113/108
f 78/127/107 66/2/107 138/2/108 137/127/108
f 109/126/131 112/109/130 118/109/156 119/126/157
f 72/125/103 70/127/127 120/127/158 117/125/159
f 70/112/94 109/113/93 119/113/160 120/112/161
f 95/80/72 76/110/126 75/106/99 93/91/73
